<svg xmlns="http://www.w3.org/2000/svg" xmlns:xlink="http://www.w3.org/1999/xlink" viewBox="0 0 317.31 397.94"><defs><style>.cls-1{fill:none;}.cls-2{clip-path:url(#clip-path);}.cls-3{clip-path:url(#clip-path-2);}.cls-4{clip-path:url(#clip-path-3);}.cls-21,.cls-5{fill:#3af6ff;}.cls-6{clip-path:url(#clip-path-5);}.cls-7{clip-path:url(#clip-path-9);}.cls-8{clip-path:url(#clip-path-10);}.cls-9{clip-path:url(#clip-path-11);}.cls-10{clip-path:url(#clip-path-15);}.cls-11{clip-path:url(#clip-path-16);}.cls-12{clip-path:url(#clip-path-17);}.cls-13{clip-path:url(#clip-path-18);}.cls-14{clip-path:url(#clip-path-19);}.cls-15{clip-path:url(#clip-path-20);}.cls-16{clip-path:url(#clip-path-21);}.cls-17{clip-path:url(#clip-path-22);}.cls-18{clip-path:url(#clip-path-23);}.cls-19{clip-path:url(#clip-path-24);}.cls-20{clip-path:url(#clip-path-25);}.cls-21{stroke:#3af6ff;stroke-miterlimit:10;stroke-width:5px;}</style><clipPath id="clip-path" transform="translate(-0.92 -1.12)"><rect class="cls-1" x="98.94" y="245.78" width="136.04" height="153.45"/></clipPath><clipPath id="clip-path-2" transform="translate(-0.92 -1.12)"><polygon class="cls-1" points="-108.83 138.71 27.14 -10.99 354.7 291.8 218.72 441.5 -108.83 138.71"/></clipPath><clipPath id="clip-path-3" transform="translate(-0.92 -1.12)"><polygon class="cls-1" points="-108.61 138.47 27.36 -11.23 354.92 291.56 218.94 441.26 -108.61 138.47"/></clipPath><clipPath id="clip-path-5" transform="translate(-0.92 -1.12)"><rect class="cls-1" width="319.06" height="335.61"/></clipPath><clipPath id="clip-path-9" transform="translate(-0.92 -1.12)"><polygon class="cls-1" points="-51.63 75.98 27.48 -11.11 354.77 291.44 275.66 378.54 -51.63 75.98"/></clipPath><clipPath id="clip-path-10" transform="translate(-0.92 -1.12)"><polygon class="cls-1" points="-51.61 76 27.5 -11.1 354.77 291.44 275.66 378.54 -51.61 76"/></clipPath><clipPath id="clip-path-11" transform="translate(-0.92 -1.12)"><rect class="cls-1" x="39.58" y="54.9" width="74.2" height="237.04"/></clipPath><clipPath id="clip-path-15" transform="translate(-0.92 -1.12)"><polygon class="cls-1" points="-65.51 178.63 48.72 52.87 180.51 174.69 66.28 300.45 -65.51 178.63"/></clipPath><clipPath id="clip-path-16" transform="translate(-0.92 -1.12)"><polygon class="cls-1" points="-65.35 178.45 48.72 52.87 180.51 174.69 66.44 300.28 -65.35 178.45"/></clipPath><clipPath id="clip-path-17" transform="translate(-0.92 -1.12)"><rect class="cls-1" x="81.62" y="139.73" width="28.45" height="34.93"/></clipPath><clipPath id="clip-path-18" transform="translate(-0.92 -1.12)"><polygon class="cls-1" points="78.92 145.12 99.48 136.52 112.61 168.51 92.05 177.1 78.92 145.12"/></clipPath><clipPath id="clip-path-19" transform="translate(-0.92 -1.12)"><polygon class="cls-1" points="71.64 148.15 99.5 136.5 114.54 173.12 86.69 184.77 71.64 148.15"/></clipPath><clipPath id="clip-path-20" transform="translate(-0.92 -1.12)"><rect class="cls-1" x="108.82" y="204.61" width="28.45" height="34.93"/></clipPath><clipPath id="clip-path-21" transform="translate(-0.92 -1.12)"><polygon class="cls-1" points="106.18 210.33 126.86 202.02 139.56 234.18 118.88 242.49 106.18 210.33"/></clipPath><clipPath id="clip-path-22" transform="translate(-0.92 -1.12)"><polygon class="cls-1" points="98.83 213.3 126.84 202.04 141.39 238.87 113.38 250.13 98.83 213.3"/></clipPath><clipPath id="clip-path-23" transform="translate(-0.92 -1.12)"><rect class="cls-1" x="136.04" y="270.72" width="27.2" height="32.44"/></clipPath><clipPath id="clip-path-24" transform="translate(-0.92 -1.12)"><polygon class="cls-1" points="133.35 275.97 153.95 267.46 166.25 297.77 145.65 306.28 133.35 275.97"/></clipPath><clipPath id="clip-path-25" transform="translate(-0.92 -1.12)"><polygon class="cls-1" points="126.08 278.96 153.99 267.44 168.92 304.21 141.01 315.74 126.08 278.96"/></clipPath></defs><g id="Capa_2" data-name="Capa 2"><g id="Capa_1-2" data-name="Capa 1"><g id="Capa_2-2" data-name="Capa 2"><g id="Capa_1-2-2" data-name="Capa 1-2"><g class="cls-2"><g class="cls-3"><g class="cls-4"><g class="cls-4"><path class="cls-5" d="M234.37,392.06l-22.58-59.35v-.07a.2.2,0,0,1,0-.11c0-.1-.09-.2-.13-.29a1,1,0,0,0-.1-.17l-.13-.24-.13-.19-.12-.17a1.84,1.84,0,0,0-.17-.22l-.11-.13-.2-.2-.13-.11-.2-.18-.16-.12-.2-.13-.19-.13-.18-.1c-.07,0-.14-.11-.22-.11l-.18-.09-.25-.09-.17-.06-.25-.07-.22-.05h-1.21l-26.43,1.14h0L154.47,332a18.32,18.32,0,0,1-7.33-3.05c-6.36-4.14-11.24-11-14.58-16.84a7.17,7.17,0,0,1-.47-.67,97.78,97.78,0,0,1-6-12c-1.78,2.8-6.69,3.56-8.73.06-.16-.28-.3-.57-.46-.85l5.36,14.11.2.47c4.12,8,8.77,14.42,13.92,19.18a41.8,41.8,0,0,0,6.56,5c6.21,3.79,10.85,4,11.35,4h.3l23.44-1,20.62,43.11a.17.17,0,0,0,0,.1,37.41,37.41,0,0,0,7.54,10.51,17.79,17.79,0,0,0,9.95,4.91h.74l13.27-.58a4.4,4.4,0,0,0,1.48-.31A4.72,4.72,0,0,0,234.37,392.06ZM217,389.58c-3.27-.58-6.85-4.25-9.87-10.17L188.25,340l16-.7,19,50Z" transform="translate(-0.92 -1.12)"/></g></g></g></g><g class="cls-6"><g class="cls-3"><g class="cls-4"><g class="cls-4"><g class="cls-7"><g class="cls-8"><path class="cls-5" d="M317.76,327.79l-21.95-46a4.71,4.71,0,0,0-2.51-2.36L171.59,231.12a4.66,4.66,0,0,0-1.68-.34C139.3,168.6,97.35,83.55,86.82,62.87c-7.27-14.34-16.15-30.64-26.75-43C46.08,3.45,32.14-2.22,18.64,3l0,0A25.39,25.39,0,0,0,5.33,14.19C2.57,19,1.09,25.06.93,32.22.67,45.07,4.46,61.67,12.57,83c7.49,19.73,28.69,64.23,29.62,66.11a4.68,4.68,0,0,0,6.26,2.21A4.75,4.75,0,0,0,50.64,145c-.21-.46-21.95-46-29.31-65.39-7.56-19.85-11.25-35.7-11-47.14.12-5.55,1.18-10.09,3.14-13.49A16,16,0,0,1,22,11.83c9.54-3.68,19.67,1,31,14.19,9.94,11.64,18.45,27.31,25.51,41.16,16.94,33.3,115.67,234.11,116.62,236.2a4.87,4.87,0,0,0,1,1.39,4.67,4.67,0,0,0,5.57.8,4.74,4.74,0,0,0,1.85-6.42c-.34-.66-11.86-24.11-27.63-56.14L288.16,287.6c2.64,5.29,17.39,35,15.81,37.2a4.27,4.27,0,0,1-1.23,1.16,6,6,0,0,1-3.18.45,9.33,9.33,0,0,0-4.11,1.06,19.36,19.36,0,0,1,3,6.12,4.57,4.57,0,0,1,.1.48l14.88.51a4.72,4.72,0,0,0,4.37-6.79Z" transform="translate(-0.92 -1.12)"/></g></g></g></g></g></g><g class="cls-9"><g class="cls-3"><g class="cls-4"><g class="cls-4"><g class="cls-10"><g class="cls-11"><path class="cls-5" d="M92.26,240.58c-.06-1.57-.42-4.51-2-5.42-.69-.4-1.42,0-2.05-.24l-.18.28a.35.35,0,0,1-.08.15c-.16.29-.32.6-.49,1a3.9,3.9,0,0,1-2,2.07L69.84,280.26l-19.3-8.71L75.8,106.49a4.87,4.87,0,0,0-.41-2.81l-22-46a4.67,4.67,0,0,0-6.25-2.21A4.75,4.75,0,0,0,45,61.82h0l21.33,44.64L40.73,273.66a4.72,4.72,0,0,0,1.46,4.22,5.48,5.48,0,0,0,1.25.84l27.12,12.22.27.11a4.67,4.67,0,0,0,6-2.75l16.68-44.61A4.61,4.61,0,0,1,92.26,240.58Z" transform="translate(-0.92 -1.12)"/></g></g></g></g></g></g></g></g><path class="cls-5" d="M82.16,260.72h0a4.72,4.72,0,0,1-2.75-6l7.76-21.07a4.64,4.64,0,0,1,6-2.77h0a4.7,4.7,0,0,1,2.74,6L88.15,258A4.64,4.64,0,0,1,82.16,260.72Z" transform="translate(-0.92 -1.12)"/><path class="cls-21" d="M87.74,180.73a8.59,8.59,0,0,1,4.63-11l12.07-5.46a8.23,8.23,0,0,1,11.09,3.93,8.59,8.59,0,0,1-4.63,11l-12.07,5.47A8.23,8.23,0,0,1,87.74,180.73Zm27.15-12.29a7.57,7.57,0,0,0-10.19-3.61l-12.07,5.46a7.89,7.89,0,0,0-4.25,10.15,7.56,7.56,0,0,0,10.19,3.62l12.07-5.47A7.89,7.89,0,0,0,114.89,168.44Z" transform="translate(-0.92 -1.12)"/><line class="cls-1" x1="203.36" y1="338.17" x2="315.92" y2="334.49"/><path class="cls-5" d="M114,280.53h0a4.88,4.88,0,0,1-6.54-2.1L97.76,258.2a4.81,4.81,0,0,1,2.46-6.36h0a4.87,4.87,0,0,1,6.53,2.09S116.52,279.35,114,280.53Z" transform="translate(-0.92 -1.12)"/><polyline class="cls-5" points="119.47 305.45 96.85 257.08 130.03 314.04"/><polyline class="cls-5" points="105.84 252.82 126.92 302.18 107.91 276.7"/><path class="cls-5" d="M127.4,306.75h0c-1.6.87-3.9-.24-5.12-2.47l-10.63-19.35c-1.22-2.23-.92-4.75.69-5.62h0c1.6-.86,3.89.24,5.12,2.48C117.46,281.79,129,305.88,127.4,306.75Z" transform="translate(-0.92 -1.12)"/><polyline class="cls-5" points="98.02 259.1 121.6 312.14 102.17 255.38"/><path class="cls-5" d="M222.38,333.55h0c-.07-2.34,2.41-4.32,5.55-4.43l27.14-.94c3.14-.11,5.73,1.69,5.8,4h0c.07,2.33-2.42,4.31-5.55,4.42C255.32,336.63,222.44,335.88,222.38,333.55Z" transform="translate(-0.92 -1.12)"/><polyline class="cls-5" points="226.25 336.57 313.52 333.37 307.67 324.59 226.03 328.05"/><path class="cls-5" d="M222.37,333.47h0a4.55,4.55,0,0,1,4.56-4.5l22.44-.79a4.49,4.49,0,0,1,4.82,4.17h0a4.56,4.56,0,0,1-4.56,4.5l-22.44.79A4.49,4.49,0,0,1,222.37,333.47Z" transform="translate(-0.92 -1.12)"/><polyline class="cls-5" points="226.27 336.52 312.47 333.46 310.25 328.45"/><path class="cls-21" d="M103.38,214.18a8.6,8.6,0,0,1,4.27-11.2l11.88-5.85a8.24,8.24,0,0,1,11.22,3.57,8.61,8.61,0,0,1-4.27,11.2l-11.89,5.85A8.23,8.23,0,0,1,103.38,214.18ZM130.12,201a7.56,7.56,0,0,0-10.3-3.28l-11.89,5.86A7.89,7.89,0,0,0,104,213.87a7.56,7.56,0,0,0,10.3,3.28l11.89-5.85A7.91,7.91,0,0,0,130.12,201Z" transform="translate(-0.92 -1.12)"/><path class="cls-21" d="M119.34,247.18a8.61,8.61,0,0,1,4.27-11.2l11.89-5.85a8.22,8.22,0,0,1,11.21,3.57,8.59,8.59,0,0,1-4.27,11.19l-11.88,5.86A8.24,8.24,0,0,1,119.34,247.18ZM146.08,234a7.56,7.56,0,0,0-10.3-3.28l-11.89,5.85A7.9,7.9,0,0,0,120,246.87a7.56,7.56,0,0,0,10.3,3.28l11.89-5.86A7.89,7.89,0,0,0,146.08,234Z" transform="translate(-0.92 -1.12)"/><path class="cls-5" d="M304.57,325.51c1.46-.11,2.69.52,2.76,1.4S303.12,325.62,304.57,325.51Z" transform="translate(-0.92 -1.12)"/><path class="cls-5" d="M303.72,326.83l-2.46.47c-.5-.17-.82-.39-.79-.53s.36-.2.78-.19l1.84-.89.38-.18a.67.67,0,1,1,.25,1.32Z" transform="translate(-0.92 -1.12)"/><path class="cls-5" d="M302.38,326.45c-.11-.9,1-.4,1-.4Z" transform="translate(-0.92 -1.12)"/><path class="cls-5" d="M302.27,326.43c0-.9,1.06-.3,1.06-.3Z" transform="translate(-0.92 -1.12)"/><polyline class="cls-5" points="301.64 324.89 301.49 324.86 301.8 324.81 301.69 325.13"/><path class="cls-21" d="M133.47,278.93a8.61,8.61,0,0,1,4.7-11l12.11-5.39a8.25,8.25,0,0,1,11.07,4,8.6,8.6,0,0,1-4.7,11l-12.11,5.39A8.25,8.25,0,0,1,133.47,278.93Zm27.24-12.11a7.57,7.57,0,0,0-10.17-3.68l-12.11,5.38a7.91,7.91,0,0,0-4.32,10.13,7.58,7.58,0,0,0,10.17,3.68l12.11-5.39A7.9,7.9,0,0,0,160.71,266.82Z" transform="translate(-0.92 -1.12)"/></g></g></svg>