<svg width="100" height="100" viewBox="0 0 100 100" fill="none" xmlns="http://www.w3.org/2000/svg">
<path d="M43.75 0C31.625 0 20.75 5 12.875 12.875L50 50V0.375C48 0.125 45.875 0 43.75 0ZM62.5 13.25V55.875L28.5 89.875C36.125 96.125 45.625 100 56.25 100C80.375 100 100 80.375 100 56.25C100 34.25 83.625 16.375 62.5 13.25ZM11.375 29.625C4.375 36.375 0 45.75 0 56.25C0 68.25 5.75 78.625 14.5 85.5L41.125 58.875L11.375 29.625Z" fill="url(#paint0_linear_294_684)"/>
<defs>
<linearGradient id="paint0_linear_294_684" x1="83.9196" y1="-24.6696" x2="44.8337" y2="87.2488" gradientUnits="userSpaceOnUse">
<stop offset="0.0606555" stop-color="#3AF6FF"/>
<stop offset="1" stop-color="#EB39D9"/>
</linearGradient>
</defs>
</svg>
